<?xml version="1.0" encoding="utf-8"?>
<!-- Generator: Adobe Illustrator 23.1.0, SVG Export Plug-In . SVG Version: 6.00 Build 0)  -->
<svg version="1.1" id="Layer_1" xmlns="http://www.w3.org/2000/svg" xmlns:xlink="http://www.w3.org/1999/xlink" x="0px" y="0px"
	 viewBox="0 0 1200 1200" enable-background="new 0 0 1200 1200" xml:space="preserve">
<g>
	<path d="M528.158,278.728c-11.054-2.339-21.757-6.296-32.844-8.334c-2.411-0.443-4.196,2.874-1.766,4.188
		c10.101,5.461,21.692,8.121,32.856,10.505c9.481,2.025,20.766,5.328,30.234,2.364c0.949-0.297,1.223-1.678,0.287-2.191
		C548.383,280.582,537.623,280.732,528.158,278.728z"/>
	<path d="M557.921,244.54c-7.61-2.92-16.4-3.72-24.39-5.554c-8.179-1.878-16.339-3.676-24.527-5.445
		c-1.429-0.309-2.56,1.846-1.059,2.513c14.611,6.491,33.262,13.221,49.536,11.741C559.373,247.623,559.694,245.22,557.921,244.54z"
		/>
	<path d="M541.429,315.769c-10.32-12.425-25.822,0.716-15.502,13.14c9.594,11.55,25.791,42.694,12.584,55.59
		c-35.774,29.07-98.734-7.52-113.784,31.184c-12.985,35.866-23.236,72.856-36.991,108.417
		c-11.026,28.468-39.201,44.363-55.646,69.027c-11.041,16.558-15.454,36.166-18.096,47.906
		c-22.76,101.202-54.591,200.376-81.893,300.407c-3.515,12.882-7.241,23.254-10.233,31.589c-2.192,6.1-4.086,11.37-5.382,16.123
		c-8.704,31.9-9.046,41.015-8.533,43.416c7.262,21.793,35.348,38.059,93.91,54.388l1.421,0.398l2.286,0.613
		c58.74,15.675,91.194,15.927,108.371,0.98c1.809-1.947,6.144-9.973,14.845-41.868c27.917-102.328,55.24-204.908,81.649-307.631
		c7.581-29.441,21.603-61.369,19.895-92.229c-1.594-28.835-17.609-59.02-12.88-87.728c0.914-5.55,3.449-17.26,6.957-33.466
		c4.647-21.466,11.077-51.178,16.241-78.717c10.117-55.721,10.96-79.013,10.96-79.013c-0.058,0.107-0.119,0.206-0.177,0.312
		C552.859,343.256,549.907,325.977,541.429,315.769z M358.926,648.537c-0.792,2.296-1.527,4.668-2.202,7.126
		c-21.699,79.128-39.96,147.376-61.848,226.523c-7.737,27.976-15.575,55.925-23.514,83.844c-3.966,13.949-7.63,28.043-11.987,41.875
		c-1.298,4.122-7.673,25.476-3.504,31.391c2.711,3.847,5.503,9.198-8.513,0.61c-5.592-3.426-9.994-7.81-10.943-13.159
		c-0.711-4.021,0.446-8.109,1.593-12.025c14.677-50.125,29.282-100.226,42.617-150.615c18.084-68.338,32.495-126.17,53.428-193.689
		c2.487-8.021,6.197-35.636,18.798-32.732c0.053,0.012,0.107,0.025,0.16,0.037C357.823,638.832,360.537,643.869,358.926,648.537z
		 M392.169,587.931c-5.27,8.602-4.332,16.38-13.643,20.588c-6.886,3.112-19.711,3.072-18.556-7.601
		c1.171-10.818,8.209-21.47,15.501-29.19c4.096-4.335,12.148-10.869,19.843-12.69c4.47-1.058,8.819-0.527,12.201,2.946
		C416.702,571.419,396.083,581.545,392.169,587.931z M421.781,529.588c-0.721,2.433-3.248,3.841-5.702,3.191l-0.1-0.027
		c-2.649-0.702-4.16-3.503-3.258-6.092c4.966-14.271,22.905-66.651,26.454-77.016c0.348-1.013,1.416-1.575,2.451-1.3
		c1.085,0.289,1.736,1.386,1.451,2.472C440.323,461.325,427.159,511.419,421.781,529.588z M510.303,668.216
		c-21.148,6.826-46.274,6.542-66.814-2.317c-1.208-0.521-0.298-2.272,0.851-2.019c22.648,4.989,42.164,5.852,64.926,0.574
		C511.72,663.885,512.688,667.446,510.303,668.216z M461.951,562.33c7.868,1.27,15.533,2.908,23.546,2.957
		c7.057,0.043,13.821-1.652,20.804-2.082c1.45-0.089,2.172,2.244,0.771,2.847c-13.449,5.792-32.83,4.393-45.755-2.218
		C460.419,563.374,461.103,562.193,461.951,562.33z M527.472,423.019c-24.743,13.675-60.524,12.876-85.742,1.144
		c-0.748-0.348-0.208-1.542,0.553-1.31c13.99,4.255,27.683,7.504,42.439,7.35c15.001-0.156,28.059-4.363,42.233-8.408
		C527.687,421.586,528.136,422.652,527.472,423.019z"/>
	<path d="M497.592,327.158c-5.715,0.922-8.751,13.62,3.482,13.967c19.123,0.543,29.697,9.994,29.697,9.994
		s-5.161-10.589-10.984-16.511C513.217,327.926,505.496,325.883,497.592,327.158z"/>
	<path d="M502.389,300.572c-1.228,12.64,12.482,19.348,12.482,19.348c-3.184-6.089-0.214-11.805,2.08-19.126
		C520.191,290.453,503.615,287.932,502.389,300.572z"/>
	<path d="M1002.838,1009.479c-0.921-2.555-1.776-5.014-2.505-7.347c-10.553-33.759-20.563-67.7-30.712-101.583
		c-12.941-43.201-25.74-86.444-38.397-129.728c-6.444-22.037-12.173-44.411-19.251-66.251
		c-3.983-12.293-13.347-28.825-13.347-41.802c-0.421-1.425-0.939-3.525-1.536-5.956c-6.362-25.881-16.199-49.454-34.491-69.169
		c-11.154-12.022-24.197-22.247-34.736-34.851c-21.108-25.24-27.375-63.734-38.722-93.902
		c-12.228-32.51-25.629-64.761-40.904-95.969c-3.355-6.854-36.693-65.533-32.464-69.991c3.846-4.118,5.188-11.391,0.48-20.741
		c-1.554-3.084-5.405-9.541-10.279-17.661c-1.747-2.91-3.545-5.905-4.418-7.42c0.037-0.788,0.341-2.089,0.613-2.694
		c3.259-6.73-1.503-15.256-3.039-17.708c-3.942-6.288-9.389-9.751-15.337-9.751c-0.922,0-1.851,0.087-2.763,0.259
		c-3.976,0.752-18.652,5.03-43.623,12.716c-19.173,5.4-32.224,9.214-39.012,11.4c1.416-5.15,0.94-10.356,0.905-10.709
		c-0.736-7.311-4.484-12.779-10.283-15.002c-3.783-1.45-18.518-5.517-43.799-12.088c-25.115-7.178-39.872-11.158-43.868-11.831
		c-0.815-0.137-1.645-0.207-2.468-0.207c-5.979,0-11.409,3.484-15.285,9.812c-1.539,2.511-6.29,11.233-2.82,18.043
		c0.272,0.575,0.602,1.867,0.655,2.655c-0.841,1.529-2.57,4.544-4.249,7.475c-4.718,8.233-8.447,14.779-9.94,17.898
		c-4.517,9.445-3.028,16.689,0.897,20.727c-3.66,9.555-20.885,50.447-38.823,87.584c-14.634,30.294-34.35,89.885-47.397,129.318
		c-4.92,14.87-8.807,26.614-10.649,31.373c-2.966,7.66-15.506,20.214-26.569,31.289c-10.901,10.915-22.173,22.202-29.402,33.039
		c-15.425,23.137-20.971,50.57-27.189,77.182c-7.189,30.764-16.457,61.177-24.778,91.664
		c-17.544,64.28-35.229,128.522-52.767,192.803c-3.3,12.095-6.724,21.624-9.744,30.032c-2.34,6.512-4.36,12.136-5.872,17.679
		c-8.761,32.11-10.983,47.151-8.199,55.501c8.569,25.713,33.347,40.318,56.878,50.488c40.161,17.357,87.298,31.147,131.386,31.147
		c21.995,0,38.791-5.317,51.358-16.256c21.903-19.073,23.048-64.549,29.652-90.879c8.785-35.027,19.081-69.608,30.45-103.878
		c10.513-31.688,15.727-64.738,24.416-96.928c10.385-38.504,18.939-78.156,31.129-116.08c7.786-24.223,9.84-48.973,6.636-74.17
		c-2.225-17.493-7.98-34.282-10.599-51.698c-2.624-17.455,1.214-31.437,4.879-48.372c8.788-40.596,22.068-101.945,24.85-135.474
		c3.408-41.105,9.338-85.092,11.037-95.173c5.139-1.413,10.351-6.483,11.298-17.391c0.088-1.009,0.158-2.403,0.219-4.058
		c0.183,0.127,0.345,0.271,0.538,0.389c0.533,0.347,1.492,1.274,1.95,1.916c0.087,1.742,0.199,5.218,0.308,8.596
		c0.31,9.483,0.575,17.009,0.944,20.447c1.162,10.86,6.505,15.837,11.645,17.155c1.9,10.033,8.721,53.899,12.96,94.936
		c3.458,33.469,17.976,94.541,27.584,134.953c3.619,15.227,6.479,27.256,7.412,32.278c5.381,28.977-12.85,55.771-13.848,84.133
		c-0.836,23.756,6.782,45.882,10.873,57.77c0.814,2.365,1.517,4.408,1.938,5.832c34.192,115.704,65.959,232.287,99.756,347.97
		c9.41,31.932,15.418,45.894,22.169,51.538c12.271,10.257,28.281,15.243,48.942,15.243c39.798,0,79.183-11.302,115.743-26.295
		c28.849-11.83,63.475-26.689,73.566-59.155C1018.044,1047.746,1008.967,1026.484,1002.838,1009.479z M587.312,241.424
		c-2.029,1.291-6.313,5.319-6.513,9.121c-0.197,3.802-0.2,24.087-0.669,29.492c-0.46,5.308-2.469,8.656-4.432,8.656
		c-0.038,0-0.073-0.001-0.108-0.003c-0.268-0.017-0.522-0.025-0.761-0.025c-4.057,0-4.402,2.324-5.353,5.23
		c-0.899,2.75-7.879,52.84-11.685,98.744c-3.807,45.904-28.443,148.491-31.509,167.102c-3.066,18.611,13.951,59.467,15.425,86.022
		c1.473,26.555-8.631,51.294-11.184,60.656c-2.555,9.362-22.975,89.586-29.575,113.772c-6.598,24.186-46.411,165.342-52.349,187.109
		s-7.48,36.938-10.778,49.031c-3.3,12.093-11.218,41.115-18.035,47.052c-10.604,9.234-24.903,13.791-44.77,13.791
		c-40.664,0-83.318-12.634-120.89-27.607c-22.775-9.077-49.513-22.127-57.861-47.169c-2.859-8.576,5.061-37.598,8.359-49.691
		c3.3-12.093,9.678-25.944,15.616-47.711c5.94-21.767,43.333-163.583,49.931-187.769c6.6-24.186,29.751-103.665,32.305-113.027
		c2.553-9.362,6.416-35.804,21.17-57.932c14.756-22.128,50.165-48.68,56.975-66.269c6.812-17.589,37.689-118.474,57.723-159.95
		c20.035-41.476,39.462-88.17,40.083-90.996c0.696-3.163,1.647-5.419-2.624-7.589c-1.782-0.907-1.857-4.866,0.484-9.76
		c2.342-4.894,12.642-22.369,14.401-25.745s0.114-9.022-0.978-11.164c-1.045-2.051,3.178-13.274,9.169-13.273
		c0.265,0,0.533,0.022,0.805,0.068c4.898,0.824,30.885,8.185,42.893,11.617c12.086,3.141,38.211,9.999,42.849,11.777
		C591.498,227.31,589.341,240.133,587.312,241.424z M1003.245,1061.573c-8.156,26.234-37.703,44.691-100.015,63.43l0.005,0.016
		c-0.642,0.19-1.264,0.366-1.903,0.552c-0.637,0.19-1.255,0.379-1.899,0.568l-0.005-0.017c-31.894,9.206-56.583,13.85-75.918,13.85
		c-18.561,0-32.185-4.279-42.509-12.909c-6.936-5.797-15.439-34.654-18.983-46.678c-3.542-12.024-5.389-27.161-11.767-48.803
		c-6.378-21.643-49.034-161.965-56.121-186.013c-7.086-24.047-29.123-103.843-31.867-113.151
		c-2.743-9.309-13.344-33.838-12.408-60.418s17.125-67.771,13.685-86.317c-3.443-18.545-30.147-120.614-34.88-166.431
		c-4.733-45.818-12.723-95.757-13.678-98.488c-0.993-2.836-1.388-5.123-5.251-5.123c-0.302,0-0.622,0.014-0.967,0.042
		c-0.049,0.004-0.095,0.006-0.142,0.006c-1.953,0-4.008-3.299-4.572-8.565c-0.577-5.394-0.99-25.675-1.266-29.472
		c-0.276-3.797-4.64-7.738-6.696-8.987c-2.054-1.249-4.471-14.027,1.554-16.476c4.599-1.871,30.581-9.255,42.601-12.64
		c11.936-3.674,37.769-11.559,42.65-12.482c0.304-0.057,0.605-0.085,0.901-0.085c5.941,0,10.335,11.026,9.338,13.086
		c-1.049,2.164-2.579,7.842-0.752,11.182c1.827,3.34,12.478,20.604,14.918,25.449c2.44,4.845,2.445,8.805,0.68,9.748
		c-4.225,2.257-3.228,4.492-2.469,7.641c0.678,2.813,21.046,49.104,41.914,90.167c20.868,41.063,53.778,141.303,60.943,158.751
		c7.166,17.448,43.105,43.279,58.305,65.104c15.199,21.825,19.594,48.183,22.337,57.492c2.743,9.309,27.496,88.304,34.583,112.351
		c7.086,24.047,47.337,165.079,53.715,186.721c6.376,21.643,13.034,35.362,16.577,47.386
		C997.425,1024.084,1005.929,1052.941,1003.245,1061.573z"/>
	<path d="M976.853,992.562c-1.147-3.973-2.298-7.939-3.49-11.878c-8.763-28.907-17.527-57.815-26.289-86.722
		c-23.281-76.798-50.488-153.412-69.651-231.318c-2.874-11.658-7.681-31.171-19.054-47.503
		c-11.947-17.156-28.271-30.388-41.754-46.214c-13.942-16.362-19.884-33.869-26.931-53.809
		c-7.32-20.708-17.452-49.369-27.521-75.517c-15.831-38.391-78.039-0.535-114.392-28.878c-13.464-12.627,2.1-44.091,11.457-55.832
		c10.067-12.631-5.698-25.455-15.763-12.824c-8.27,10.377-10.873,27.712-8.93,53.03c-0.06-0.105-0.123-0.202-0.183-0.309
		c0,0,1.313,23.27,12.554,78.775c5.719,27.429,12.749,57.005,17.828,78.372c3.835,16.131,6.605,27.786,7.631,33.317
		c4.397,23.687-5.175,44.601-9.538,67.045c-5.012,25.786,2.474,52.537,9.651,77.166c19.363,66.494,40.332,134.287,60.097,201.344
		c10.148,34.429,20.066,68.927,29.472,103.566c5.827,21.458,8.274,61.367,24.508,78.136c17.474,14.596,49.917,13.689,108.329-3.171
		l2.272-0.659l1.415-0.427c58.206-17.506,85.958-34.332,92.788-56.26c3.275-10.52-1.551-19.311-4.925-28.651
		C982.797,1013.276,979.838,1002.896,976.853,992.562z M749.94,582.307c6.89-2.963,13.888-5.457,20.361-9.305
		c6.556-3.898,11.56-9.608,17.853-13.694c1.297-0.841,2.863,0.813,2.091,2.09c-7.284,12.039-26.195,21.415-39.89,22.442
		C749.572,583.898,749.191,582.629,749.94,582.307z M659.575,449.008c-0.69-0.358-0.2-1.416,0.515-1.224
		c14.172,3.803,27.533,7.715,42.406,7.568c14.733-0.145,28.388-3.684,42.271-8.229c0.771-0.252,1.281,0.956,0.553,1.31
		C720.173,460.673,684.76,462.063,659.575,449.008z M670.791,499.019c-0.246-1.042,0.358-2.087,1.381-2.405
		c1.072-0.334,2.208,0.247,2.547,1.318c3.269,10.359,18.828,59.761,23.959,78.002c0.688,2.443-0.701,4.982-3.124,5.738l-0.099,0.031
		c-2.615,0.818-5.386-0.748-6.003-3.418C686.049,563.562,673.312,509.68,670.791,499.019z M684.392,669.23
		c-4.775-9.778-4.498-22.542-2.441-32.96c1.155-5.851,4.487-15.671,10.028-21.313c3.217-3.277,7.18-5.145,11.894-4.009
		c12.802,3.087,0.751,22.644,0.841,30.135c0.126,10.087,5.065,16.169-0.571,24.691C699.975,672.076,689.102,678.877,684.392,669.23z
		 M823.057,1100.698c-6.558,0.081-12.62-1.282-16.273-5.303c-2.745-3.023-3.944-7.099-5.061-11.024
		c-14.295-50.235-28.638-100.412-44.208-150.156c-21.119-67.462-39.746-124.077-58.015-192.365
		c-2.171-8.112-13.75-33.455-1.539-37.714c0.051-0.018,0.104-0.036,0.156-0.054c4.663-1.626,9.644,1.19,10.768,5.998
		c0.554,2.366,1.195,4.764,1.937,7.203c23.808,78.518,44.73,145.999,68.388,224.635c8.363,27.796,16.626,55.621,24.788,83.477
		c4.079,13.917,8.489,27.796,12.174,41.821c1.098,4.18,7.084,25.646,13.764,28.43
		C834.281,1097.455,839.493,1100.496,823.057,1100.698z M847.399,646.122c-13.624,16.813-36.08,30.775-57.744,33.583
		c-1.333,0.173-1.354-1.768-0.293-2.17c21.768-8.246,38.626-17.595,55.278-34.172C846.46,641.551,848.947,644.212,847.399,646.122z"
		/>
	<path d="M657.802,311.107c11.119-2.611,22.672-5.496,32.661-11.161c2.344-1.329,0.709-4.695-1.765-4.188
		c-11.038,2.258-21.653,6.43-32.65,8.991c-9.434,2.197-20.217,2.26-28.672,7.118c-0.905,0.52-0.692,1.906,0.287,2.191
		C637.255,316.85,648.338,313.329,657.802,311.107z"/>
	<path d="M675.305,261.707c1.457-0.683,0.402-2.86-1.059-2.513c-8.144,1.932-16.251,3.881-24.383,5.932
		c-7.997,2.017-16.695,2.963-24.295,6.053c-1.704,0.693-1.512,3.116,0.44,3.255C642.294,275.588,660.83,268.495,675.305,261.707z"/>
	<path d="M687.523,352.569c-7.929-1.115-15.606,1.083-22.041,7.897c-5.702,6.039-10.647,16.73-10.647,16.73
		s10.381-9.662,29.488-10.592C696.549,366.009,693.254,353.375,687.523,352.569z"/>
	<path d="M682.19,326.085c-1.482-12.613-18.004-9.758-14.556,0.516c2.441,7.273,5.526,12.928,2.465,19.08
		C670.1,345.681,683.673,338.698,682.19,326.085z"/>
	<path d="M513.588,121.35c5.872,13.724,11.603,27.301,19.27,40.12c1.154,1.929,4.154,0.658,3.608-1.521
		c-3.637-14.503-9.174-28.162-14.722-42.037c-5.038-12.603-9.617-25.621-16.721-37.229c-1.931-3.155-6.79-1.093-5.929,2.499
		C502.27,96.412,508.248,108.867,513.588,121.35z"/>
	<path d="M589.379,157.596c0.046,3.893,6.389,5.088,7.063,0.956c2.891-17.739,3.729-35.613,4.275-53.563
		c0.537-17.61,1.828-36.149-2.983-53.302c-0.607-2.164-4.039-2.334-4.556,0c-3.666,16.602-2.349,34.018-2.594,50.908
		C590.32,120.938,589.157,139.251,589.379,157.596z"/>
	<path d="M653.244,173.361c11.484-12.625,22.667-25.487,33.751-38.465c10.087-11.81,22.136-23.296,29.737-36.918
		c2.13-3.817-2.634-6.996-5.758-4.443c-12.94,10.572-22.955,25.807-33.547,38.671c-10.041,12.195-19.897,24.511-29.555,37.012
		C645.499,172.289,650.654,176.207,653.244,173.361z"/>
	<path d="M472.232,162.66c3.035,1.982,5.514-2.668,2.776-4.749c-16.128-12.26-32.445-26.605-51.033-34.974
		c-1.892-0.852-3.892,1.335-2.307,2.99C435.929,140.813,455.091,151.461,472.232,162.66z"/>
	<path d="M713.11,192.324c19.431-6.532,42.332-11.858,59.649-23.085c2.656-1.721,0.88-5.38-2.064-4.897
		c-20.26,3.322-40.92,14.818-59.677,23.02C708.209,188.59,710.207,193.299,713.11,192.324z"/>
</g>
</svg>
