<?xml version="1.0" encoding="utf-8"?>
<!-- Generator: Adobe Illustrator 23.1.0, SVG Export Plug-In . SVG Version: 6.00 Build 0)  -->
<svg version="1.1" id="Layer_1" xmlns="http://www.w3.org/2000/svg" xmlns:xlink="http://www.w3.org/1999/xlink" x="0px" y="0px"
	 viewBox="0 0 1200 1200" enable-background="new 0 0 1200 1200" xml:space="preserve">
<g>
	<path d="M555.446,485.826c-160.369-12.945-258.311-69.923-286.708-88.713c-4.374-2.895-10.286-0.762-11.852,4.244L75.167,982.288
		c-2.244,7.175-0.05,14.971,5.582,19.951c4.239,3.749,10.36,8.575,19.192,14.657l1.2,0.826
		c28.373,19.652,64.245,36.336,106.616,49.591c17.452,5.459,35.794,10.323,56.079,14.872c31.164,6.988,64.286,12.883,95.361,8.739
		l1.432-0.187c1.807-0.233,3.443-0.466,4.923-0.697c7.131-1.113,12.98-6.212,15.134-13.1l181.707-580.894
		C563.909,491.199,560.509,486.235,555.446,485.826z M307.38,441.52c-25.093,80.219-55.665,177.955-80.758,258.175
		c-19.521,62.407-39.043,124.815-58.564,187.222c-9.42,30.115-18.84,60.23-28.261,90.345c-3.787,12.108-3.321,20.042-0.15,29.89
		c-5.424-3.272-16.072-6.8-22.554-12.415c-3.752-3.25-4.804-10.442-2.57-17.584l171.479-548.196
		c0.778-1.584,1.615-3.119,2.548-4.567c3.425-5.314,6.817-4.841,10.505-2.826c3.307,1.807,6.696,4.277,9.233,7.753
		C308.311,433.335,307.986,437.412,307.38,441.52z"/>
	<path d="M512.666,352.61c0.048,0.022,0.094,0.041,0.142,0.063c0.047,0.022,0.087,0.043,0.135,0.065
		c3.948,1.82,7.304,3.131,10.211,4.04c9.104,2.848,13.779,1.748,18.239-0.034c5.724-2.288,2.251-8.515-6.951-12.045
		c0,0,0.001-0.002,0.001-0.002c-0.023-0.009-0.046-0.016-0.069-0.025c-0.022-0.009-0.044-0.018-0.066-0.026c0,0-0.004,0-0.005,0.001
		c-0.607-0.227-1.238-0.442-1.889-0.646c-8.55-2.674-20.461-3.337-25.278-1.659C501.826,344.19,498.72,346.18,512.666,352.61z"/>
	<path d="M570.916,471.028c-22.772-3.184-45.934-3.614-68.749-7.385c-27.093-4.478-54.052-10.656-80.546-17.859
		c-20.916-5.687-41.703-12.207-61.975-19.892c-32.959-12.495-61.683-30.268-92.211-47.428c-1.126-0.633-2.656,0.884-1.559,1.843
		c42.625,37.304,100.125,56.52,153.735,71.906c25.714,7.381,51.649,13.735,78.033,18.228c23.025,3.921,50.436,9.406,73.521,3.163
		C572.653,473.201,572.349,471.229,570.916,471.028z"/>
	<path d="M563.819,422.368c-43.266-3.313-105.611-21.19-134.168-29.953c-28.308-9.025-89.7-29.852-127.135-51.785
		c-3.761-2.203-8.531-1.507-11.477,1.706c-5.958,6.499-11.447,12.758-15.416,17.657c-3.429,4.233-2.499,10.486,2.033,13.509
		c27.293,18.206,125.475,76.111,287.232,89.227c5.649,0.458,10.381-4.276,9.935-9.926c-0.488-6.18-1.402-14.123-2.546-22.493
		C571.688,425.992,568.165,422.701,563.819,422.368z M327.156,387.178c-3.171,4.809-9.794,5.745-14.152,2.059
		c-4.768-4.032-4.026-9.988-0.314-14.297c0.684-0.794,0.876-1.056,1.944-2.354c1.052-1.28,2.108-2.535,3.269-3.714
		c2.305-2.341,5.075-4.271,8.184-5.301c4.272-1.414,8.578,2.831,8.413,6.937C334.258,376.532,330.38,382.288,327.156,387.178z"/>
	<path d="M1149.284,988.109L953.238,361.375c-3.152-10.076-28.439-36.816-39.771-48.447c1.501-3.785,2.421-8.762,0.686-14.307
		c-4.772-15.257-28.395-27.093-169.882,17.165c-16.456,5.147-31.554,10.145-45.3,14.99c-14.714-3.636-33.138-3.527-46.194,0.557
		c-0.439,0.137-0.875,0.28-1.302,0.426c-15.23,5.208-17.692,13.953-17.804,18.703c-0.041,1.726,0.226,3.993,1.29,6.474
		c-17.356,8.658-28.999,16.657-34.964,23.98c-5.965-7.324-17.608-15.322-34.963-23.98c1.064-2.482,1.331-4.749,1.29-6.474
		c-0.112-4.75-2.573-13.495-17.804-18.703c-0.427-0.146-0.862-0.288-1.302-0.426c-13.056-4.084-31.48-4.193-46.194-0.557
		c-13.745-4.845-28.844-9.843-45.299-14.99c-141.487-44.258-165.109-32.422-169.882-17.165c-1.735,5.545-0.814,10.522,0.686,14.307
		c-11.331,11.632-36.619,38.371-39.771,48.447L50.716,988.109c-3.116,9.961,4.298,20.675,15.202,30.721
		c1.72,4.352,1.648,11.386,1.591,16.44c-0.043,3.761-0.076,6.734,0.462,8.936c4.81,19.69,38.421,33.866,53.752,41.431
		c44.298,21.858,91.625,37.576,140.143,46.814c21.621,4.117,71.461,18.242,91.041,0.887c1.677-1.486,3.31-3.865,5.377-6.877
		c2.845-4.144,6.831-9.899,10.789-12.36c15.361-2.164,29.463-5.844,32.696-16.178l196.046-626.736
		c3.222-10.302-2.65-48.154-5.257-63.569c2.47-1.255,5.175-3.047,7.441-5.47c2.267,2.423,4.971,4.214,7.441,5.47
		c-2.606,15.415-8.479,53.268-5.257,63.569l196.046,626.736c3.233,10.334,17.334,14.015,32.696,16.178
		c3.959,2.461,7.944,8.216,10.789,12.36c2.067,3.012,3.7,5.391,5.377,6.877c19.58,17.355,69.42,3.23,91.041-0.887
		c48.519-9.238,95.845-24.956,140.143-46.814c15.331-7.565,48.943-21.741,53.752-41.431c0.538-2.203,0.505-5.175,0.462-8.936
		c-0.057-5.054-0.129-12.088,1.591-16.44C1144.986,1008.785,1152.4,998.07,1149.284,988.109z M654.478,340.535
		c0.351-0.12,0.709-0.237,1.07-0.35c13.239-4.141,33.114-3.563,46.57,1.183l35.094,12.379c6.861,2.42,12.049,5.679,15.055,9.192
		c-12.164,3.491-24.472,6.663-36.864,9.46l18.191-11.939c1.358-0.891,0.516-2.277-1.841-3.104l-4.809-1.687
		c-8.878-3.114-20.376-3.508-28.12-1.086c-1.131,0.354-2.182,0.768-3.134,1.242c-8.108,4.044-6.373,11.087,4.945,15.567l5.373,2.126
		c0.584,0.231,1.218,0.393,1.867,0.513c-4.963,1.052-9.934,2.022-14.916,2.933l-37.983-15.014
		C638.506,355.44,639.53,345.646,654.478,340.535z M544.452,340.185c0.361,0.113,0.719,0.23,1.07,0.35
		c14.948,5.111,15.971,14.905-0.498,21.415l-37.983,15.014c-4.981-0.911-9.952-1.881-14.916-2.933
		c0.649-0.119,1.283-0.282,1.867-0.513l5.373-2.126c11.318-4.48,13.053-11.523,4.945-15.567c-0.952-0.475-2.002-0.888-3.134-1.242
		c-7.744-2.422-19.242-2.028-28.12,1.086l-4.809,1.687c-2.357,0.827-3.199,2.213-1.841,3.104l18.191,11.939
		c-12.391-2.797-24.699-5.969-36.864-9.46c3.006-3.513,8.194-6.772,15.055-9.192l35.094-12.379
		C511.339,336.622,531.213,336.044,544.452,340.185z M332.347,1126.099c-40.964,0.41-83.681-11.239-122.925-22.037
		c-41.996-11.556-86.46-29.447-121.033-56.388c-1.66-1.294-0.073-3.863,1.79-2.779c74.721,43.506,156.428,68.39,242.305,77.205
		C335.04,1122.362,334.933,1126.073,332.347,1126.099z M586.012,467.494L389.966,1094.23c-0.362,1.156-3.256,5.144-25.33,7.99
		l-1.379,0.181c-32.884,4.383-67.228-1.696-99.442-8.919c-70.759-15.865-125.311-37.532-166.771-66.249l-1.173-0.81
		c-33.729-23.227-34.054-32.372-33.35-34.621l196.046-626.735c1.617-5.168,19.069-25.159,35.709-42.359
		c32.681,24.848,113.556,51.804,138.617,59.795c25.084,7.695,106.901,31.63,147.916,29.834
		C584.679,435.952,587.629,462.323,586.012,467.494z M588.739,399.149l-3.534,0.436c-36.982,4.557-130.347-23.28-148.622-28.886
		c-18.278-5.828-110.864-36.158-138.657-60.977l-3.57-3.189c-0.244-1.588-0.226-3.324,0.343-5.144
		c2.249-7.191,22.173-19.321,158.26,23.248c12.183,3.811,23.305,7.45,33.495,10.926l-25.893,9.133
		c-4.738-1.621-9.666-3.245-14.838-4.863c-52.849-16.531-94.137-22.39-112.821-24.362c-7.148-3.883-14.27-7.858-21.349-12.036
		c-1.138-0.671-2.595,0.848-1.56,1.844c20.31,19.534,47.99,31.103,73.549,42.192c19.366,8.402,39.513,15.01,59.686,21.168
		c22.538,6.881,45.258,12.817,68.501,16.802c20.75,3.557,45.31,7.987,65.935,1.367c1.402-0.45,1.266-2.425-0.247-2.575
		c-12.293-1.218-24.588-1.794-36.873-2.784c-2.079-1.357-4.63-2.951-7.65-4.732l15.542-6.143c4.681-1.851,8.143-3.945,10.73-6.1
		c32.83,16.114,35.974,25.021,36.181,27.304c0,0.135,0.005,0.269,0.01,0.404c-0.007,0.114-0.021,0.183-0.024,0.194
		C594.37,395.45,591.515,397.67,588.739,399.149z M604.669,392.378c-0.003-0.011-0.017-0.08-0.025-0.195
		c0.005-0.133,0.01-0.266,0.01-0.399c0.204-2.278,3.336-11.186,36.181-27.308c2.587,2.154,6.049,4.249,10.73,6.1l15.542,6.143
		c-3.021,1.781-5.572,3.375-7.65,4.732c-12.285,0.99-24.58,1.566-36.873,2.784c-1.513,0.15-1.649,2.125-0.247,2.575
		c20.626,6.62,45.185,2.19,65.935-1.367c23.243-3.985,45.962-9.921,68.501-16.802c20.172-6.159,40.319-12.766,59.685-21.168
		c25.56-11.089,53.239-22.658,73.549-42.192c1.036-0.996-0.421-2.515-1.56-1.844c-7.079,4.177-14.202,8.153-21.349,12.036
		c-18.684,1.972-59.972,7.831-112.821,24.362c-5.172,1.618-10.1,3.241-14.838,4.863l-25.893-9.133
		c10.19-3.476,21.312-7.115,33.495-10.926c136.087-42.569,156.01-30.439,158.26-23.248c0.569,1.82,0.587,3.556,0.343,5.144
		l-3.57,3.189c-27.793,24.819-120.378,55.148-138.657,60.977c-18.275,5.606-111.641,33.443-148.622,28.886l-3.534-0.436
		C608.485,397.67,605.63,395.45,604.669,392.378z M1111.611,1047.673c-34.574,26.941-79.037,44.832-121.033,56.388
		c-39.244,10.798-81.961,22.447-122.925,22.037c-2.586-0.026-2.694-3.736-0.137-3.999c85.877-8.815,167.584-33.699,242.305-77.205
		C1111.685,1043.81,1113.272,1046.38,1111.611,1047.673z M1104.13,1026.423l-1.173,0.81c-41.46,28.716-96.012,50.383-166.771,66.249
		c-32.215,7.223-66.558,13.303-99.442,8.919l-1.379-0.181c-22.074-2.845-24.968-6.834-25.33-7.99L613.988,467.494
		c-1.618-5.171,1.333-31.542,5.205-55.157c41.015,1.796,122.832-22.139,147.916-29.834c25.06-7.991,105.936-34.947,138.617-59.795
		c16.64,17.2,34.092,37.19,35.709,42.359l196.046,626.735C1138.184,994.051,1137.859,1003.196,1104.13,1026.423z"/>
	<path d="M943.115,401.357c-1.566-5.007-7.478-7.139-11.852-4.244c-28.397,18.79-126.339,75.768-286.708,88.713
		c-5.063,0.409-8.463,5.372-6.947,10.22l181.707,580.894c2.155,6.888,8.003,11.987,15.135,13.1c1.481,0.231,3.117,0.464,4.923,0.697
		l1.432,0.187c31.076,4.144,64.197-1.751,95.361-8.739c20.284-4.548,38.627-9.413,56.079-14.872
		c42.372-13.254,78.244-29.939,106.616-49.591l1.2-0.826c8.832-6.082,14.952-10.908,19.191-14.657
		c5.631-4.98,7.826-12.777,5.582-19.951L943.115,401.357z M868.369,1077.22c-4.938-0.504-9.931-5.786-12.206-12.916L681.582,517.088
		c-0.273-1.744-0.47-3.481-0.538-5.202c-0.25-6.317,2.798-7.879,6.975-8.348c3.745-0.421,7.939-0.346,12.012,1.041
		c2.327,3.276,4.403,6.8,6.268,10.51c25.547,80.075,56.672,177.637,82.22,257.713c19.875,62.296,39.749,124.592,59.624,186.888
		c9.591,30.061,19.181,60.122,28.772,90.184c3.856,12.086,8.795,18.313,17.049,24.551
		C887.642,1074.862,876.9,1078.092,868.369,1077.22z"/>
	<path d="M658.607,356.744c4.461,1.783,9.135,2.882,18.24,0.034c2.907-0.909,6.263-2.22,10.211-4.04
		c0.047-0.022,0.089-0.043,0.135-0.065c0.048-0.022,0.094-0.04,0.142-0.063c13.946-6.43,10.84-8.42,5.53-10.27
		c-4.816-1.677-16.727-1.015-25.278,1.659c-0.651,0.204-1.282,0.419-1.889,0.646c-0.001,0-0.005-0.001-0.005-0.001
		c-0.023,0.009-0.044,0.018-0.066,0.026c-0.023,0.009-0.046,0.016-0.069,0.025c0,0,0.001,0.002,0.001,0.002
		C656.356,348.228,652.883,354.456,658.607,356.744z"/>
	<path d="M702.357,470.441c26.384-4.493,52.319-10.847,78.033-18.228C834,436.827,891.5,417.611,934.125,380.307
		c1.096-0.96-0.433-2.477-1.559-1.843c-30.528,17.16-59.253,34.933-92.211,47.428c-20.272,7.685-41.059,14.205-61.975,19.892
		c-26.494,7.203-53.454,13.382-80.546,17.859c-22.815,3.771-45.977,4.202-68.749,7.385c-1.433,0.2-1.737,2.173-0.247,2.575
		C651.921,479.847,679.332,474.362,702.357,470.441z"/>
	<path d="M922.344,373.503c4.532-3.023,5.462-9.276,2.033-13.509c-3.969-4.899-9.458-11.158-15.416-17.657
		c-2.946-3.213-7.716-3.91-11.477-1.706c-37.434,21.933-98.827,42.76-127.135,51.785c-28.557,8.762-90.903,26.64-134.169,29.953
		c-4.346,0.333-7.868,3.624-8.458,7.942c-1.143,8.37-2.057,16.313-2.546,22.493c-0.446,5.65,4.286,10.384,9.935,9.926
		C796.869,449.614,895.052,391.708,922.344,373.503z M671.066,426.291c1.645-3.765,7.373-5.702,10.598-2.564
		c2.347,2.284,3.995,5.231,5.046,8.344c0.529,1.568,0.93,3.158,1.318,4.769c0.393,1.635,0.452,1.955,0.72,2.967
		c1.456,5.498-0.478,11.179-6.529,12.723c-5.531,1.411-11.079-2.324-11.83-8.035C669.625,438.688,668.651,431.816,671.066,426.291z"
		/>
	<path d="M476.017,173.245c10.298,19.55,20.37,38.902,33.208,56.903c1.932,2.709,6.208,0.476,5.143-2.674
		c-7.092-20.966-16.889-40.461-26.726-60.273c-8.933-17.996-17.239-36.659-29.103-52.941c-3.225-4.425-10.149-0.804-8.45,4.393
		C456.349,137.797,466.653,155.463,476.017,173.245z"/>
	<path d="M592.161,217.706c0.531,5.739,10.032,6.748,10.536,0.57c2.155-26.517,1.262-52.99-0.068-79.541
		c-1.304-26.048-1.605-53.556-10.746-78.292c-1.154-3.121-6.238-2.963-6.723,0.542c-3.434,24.932,0.583,50.473,2.232,75.423
		C589.186,163.504,589.65,190.664,592.161,217.706z"/>
	<path d="M688.271,233.364c15.442-19.995,30.412-40.304,45.221-60.773c13.478-18.626,29.888-37.008,39.483-58.013
		c2.689-5.885-4.72-10.009-9.025-5.87c-17.834,17.139-30.799,40.811-44.896,61.052c-13.364,19.189-26.441,38.535-39.203,58.129
		C676.716,232.705,684.789,237.872,688.271,233.364z"/>
	<path d="M419.914,239.121c4.714,2.564,7.818-4.592,3.531-7.337c-25.257-16.17-51.039-35.393-79.462-45.53
		c-2.893-1.032-5.584,2.434-3.048,4.687C363.748,211.207,393.289,224.638,419.914,239.121z"/>
	<path d="M778.86,254.219c27.893-11.951,61.05-22.535,85.264-41.161c3.714-2.856,0.659-8.043-3.628-6.98
		c-29.498,7.313-58.614,26.735-85.314,41.069C771.184,249.293,774.694,256.003,778.86,254.219z"/>
</g>
</svg>
